<svg width="42" height="44" viewBox="0 0 42 44" fill="none" xmlns="http://www.w3.org/2000/svg">
<g clip-path="url(#clip0_35_78)">
<path d="M41.4025 21.6641C41.4025 9.69944 32.1341 0 20.7012 0C9.26836 0 0 9.69944 0 21.6641C0 31.8237 6.68402 40.3489 15.7006 42.6904V28.2846H11.4321V21.6641H15.7006V18.8114C15.7006 11.4378 18.8895 8.02005 25.807 8.02005C27.1186 8.02005 29.3817 8.28955 30.3074 8.55818V14.5591C29.8189 14.5054 28.9701 14.4785 27.916 14.4785C24.5219 14.4785 23.2102 15.8243 23.2102 19.3226V21.6641H29.9721L28.8103 28.2846H23.2102V43.1696C33.4607 41.8741 41.4033 32.7405 41.4033 21.6641H41.4025Z" fill="#979797"/>
<path d="M28.8095 28.2846L29.9712 21.6641H23.2094V19.3226C23.2094 15.8243 24.521 14.4785 27.9152 14.4785C28.9693 14.4785 29.8181 14.5054 30.3066 14.5591V8.55816C29.3808 8.28865 27.1178 8.02002 25.8062 8.02002C18.8886 8.02002 15.6998 11.4377 15.6998 18.8113V21.6641H11.4312V28.2846H15.6998V42.6904C17.3013 43.1063 18.9764 43.3281 20.7004 43.3281C21.5492 43.3281 22.3863 43.2736 23.2086 43.1696V28.2846H28.8087H28.8095Z" fill="white"/>
</g>
<defs>
<clipPath id="clip0_35_78">
<rect width="41.4025" height="43.3282" fill="white"/>
</clipPath>
</defs>
</svg>
