<svg width="43" height="44" viewBox="0 0 43 44" fill="none" xmlns="http://www.w3.org/2000/svg">
<g clip-path="url(#clip0_35_83)">
<path d="M21.418 4.77742C27.0777 4.77742 27.7479 4.80225 29.9738 4.90154C32.0424 4.99256 33.1594 5.34009 33.9041 5.6297C34.8888 6.01032 35.6004 6.47369 36.3368 7.21012C37.0815 7.95482 37.5366 8.65816 37.9173 9.64282C38.2069 10.3875 38.5544 11.5128 38.6454 13.5732C38.7447 15.8073 38.7695 16.4775 38.7695 22.129C38.7695 27.7887 38.7447 28.459 38.6454 30.6848C38.5544 32.7534 38.2069 33.8705 37.9173 34.6152C37.5366 35.5999 37.0733 36.3115 36.3368 37.0479C35.5921 37.7926 34.8888 38.2477 33.9041 38.6283C33.1594 38.9179 32.0341 39.2654 29.9738 39.3565C27.7397 39.4558 27.0694 39.4806 21.418 39.4806C15.7582 39.4806 15.088 39.4558 12.8621 39.3565C10.7935 39.2654 9.67647 38.9179 8.93177 38.6283C7.9471 38.2477 7.2355 37.7843 6.49907 37.0479C5.75437 36.3032 5.29927 35.5999 4.91864 34.6152C4.62904 33.8705 4.28151 32.7452 4.19049 30.6848C4.0912 28.4507 4.06637 27.7805 4.06637 22.129C4.06637 16.4693 4.0912 15.799 4.19049 13.5732C4.28151 11.5046 4.62904 10.3875 4.91864 9.64282C5.29927 8.65816 5.76264 7.94655 6.49907 7.21012C7.24377 6.46542 7.9471 6.01032 8.93177 5.6297C9.67647 5.34009 10.8018 4.99256 12.8621 4.90154C15.088 4.80225 15.7582 4.77742 21.418 4.77742ZM21.418 0.962891C15.6672 0.962891 14.9473 0.987714 12.6884 1.08701C10.4377 1.1863 8.89039 1.55038 7.54993 2.07167C6.15154 2.61779 4.96829 3.33767 3.79332 4.52092C2.61007 5.69589 1.89019 6.87914 1.34407 8.26926C0.822778 9.618 0.458701 11.157 0.359408 13.4077C0.260114 15.6749 0.235291 16.3948 0.235291 22.1456C0.235291 27.8963 0.260114 28.6162 0.359408 30.8751C0.458701 33.1258 0.822778 34.6731 1.34407 36.0136C1.89019 37.412 2.61007 38.5952 3.79332 39.7702C4.96829 40.9452 6.15154 41.6733 7.54165 42.2112C8.89039 42.7325 10.4294 43.0965 12.6801 43.1958C14.939 43.2951 15.6589 43.3199 21.4097 43.3199C27.1604 43.3199 27.8803 43.2951 30.1393 43.1958C32.3899 43.0965 33.9372 42.7325 35.2777 42.2112C36.6678 41.6733 37.8511 40.9452 39.026 39.7702C40.201 38.5952 40.9292 37.412 41.467 36.0219C41.9883 34.6731 42.3524 33.1341 42.4517 30.8834C42.551 28.6245 42.5758 27.9046 42.5758 22.1538C42.5758 16.4031 42.551 15.6832 42.4517 13.4243C42.3524 11.1736 41.9883 9.62627 41.467 8.2858C40.9457 6.87914 40.2258 5.69589 39.0426 4.52092C37.8676 3.34594 36.6844 2.61779 35.2943 2.07995C33.9455 1.55865 32.4065 1.19458 30.1558 1.09528C27.8886 0.987714 27.1687 0.962891 21.418 0.962891Z" fill="#979797"/>
<path d="M21.4179 11.2646C15.4107 11.2646 10.537 16.1383 10.537 22.1456C10.537 28.1529 15.4107 33.0265 21.4179 33.0265C27.4252 33.0265 32.2989 28.1529 32.2989 22.1456C32.2989 16.1383 27.4252 11.2646 21.4179 11.2646ZM21.4179 29.2037C17.5206 29.2037 14.3598 26.0429 14.3598 22.1456C14.3598 18.2483 17.5206 15.0875 21.4179 15.0875C25.3152 15.0875 28.4761 18.2483 28.4761 22.1456C28.4761 26.0429 25.3152 29.2037 21.4179 29.2037Z" fill="#979797"/>
<path d="M35.2694 10.8343C35.2694 12.241 34.1276 13.3746 32.7292 13.3746C31.3225 13.3746 30.1889 12.2327 30.1889 10.8343C30.1889 9.42767 31.3308 8.29407 32.7292 8.29407C34.1276 8.29407 35.2694 9.43595 35.2694 10.8343Z" fill="#979797"/>
</g>
<defs>
<clipPath id="clip0_35_83">
<rect width="42.3653" height="42.3653" fill="white" transform="translate(0.235291 0.962891)"/>
</clipPath>
</defs>
</svg>
