<svg width="43" height="44" viewBox="0 0 43 44" fill="none" xmlns="http://www.w3.org/2000/svg">
<g clip-path="url(#clip0_35_87)">
<path d="M39.8726 0.962891H3.76203C2.93259 0.962891 2.13713 1.29238 1.55063 1.87888C0.964135 2.46538 0.634644 3.26084 0.634644 4.09028V40.2008C0.634644 41.0303 0.964135 41.8257 1.55063 42.4122C2.13713 42.9987 2.93259 43.3282 3.76203 43.3282H39.8726C40.702 43.3282 41.4975 42.9987 42.084 42.4122C42.6705 41.8257 43 41.0303 43 40.2008V4.09028C43 3.26084 42.6705 2.46538 42.084 1.87888C41.4975 1.29238 40.702 0.962891 39.8726 0.962891ZM13.2619 37.0529H6.89236V16.8205H13.2619V37.0529ZM10.0727 14.0167C9.35019 14.0126 8.64507 13.7946 8.04634 13.3902C7.44761 12.9858 6.9821 12.4131 6.70856 11.7443C6.43501 11.0756 6.3657 10.3408 6.50936 9.6327C6.65302 8.9246 7.00321 8.27493 7.51575 7.76567C8.02829 7.25641 8.6802 6.91039 9.3892 6.77128C10.0982 6.63217 10.8325 6.70621 11.4995 6.98404C12.1665 7.26187 12.7362 7.73105 13.1368 8.33236C13.5373 8.93368 13.7508 9.64018 13.7502 10.3627C13.7571 10.8464 13.6664 11.3266 13.4837 11.7745C13.301 12.2225 13.03 12.6291 12.6868 12.97C12.3436 13.311 11.9353 13.5794 11.4862 13.7593C11.0371 13.9391 10.5564 14.0266 10.0727 14.0167ZM36.7393 37.0705H30.3728V26.0173C30.3728 22.7575 28.9871 21.7513 27.1983 21.7513C25.3095 21.7513 23.456 23.1753 23.456 26.0997V37.0705H17.0865V16.8352H23.2118V19.6389H23.2942C23.9091 18.3945 26.0627 16.2674 29.3489 16.2674C32.9029 16.2674 36.7423 18.3768 36.7423 24.5551L36.7393 37.0705Z" fill="#979797"/>
</g>
<defs>
<clipPath id="clip0_35_87">
<rect width="42.3653" height="42.3653" fill="white" transform="translate(0.634644 0.962891)"/>
</clipPath>
</defs>
</svg>
