<svg width="43" height="44" viewBox="0 0 43 44" fill="none" xmlns="http://www.w3.org/2000/svg">
<g clip-path="url(#clip0_35_75)">
<path d="M0.436523 21.2982C0.436523 11.712 0.436523 6.91898 3.41457 3.94093C6.39261 0.962891 11.1857 0.962891 20.7719 0.962891H22.4665C32.0527 0.962891 36.8457 0.962891 39.8238 3.94093C42.8018 6.91898 42.8018 11.712 42.8018 21.2982V22.9929C42.8018 32.5791 42.8018 37.3721 39.8238 40.3502C36.8457 43.3282 32.0527 43.3282 22.4665 43.3282H20.7719C11.1857 43.3282 6.39261 43.3282 3.41457 40.3502C0.436523 37.3721 0.436523 32.5791 0.436523 22.9929V21.2982Z" fill="#979797"/>
<path d="M22.9784 31.4837C13.3226 31.4837 7.81523 24.8641 7.58575 13.8491H12.4225C12.5813 21.9338 16.147 25.3584 18.9713 26.0645V13.8491H23.5258V20.8217C26.3148 20.5217 29.2448 17.3443 30.2333 13.8491H34.7876C34.0286 18.1563 30.8512 21.3337 28.5917 22.6399C30.8512 23.6991 34.4701 26.4705 35.847 31.4837H30.8335C29.7568 28.1298 27.0739 25.5349 23.5258 25.1818V31.4837H22.9784Z" fill="white"/>
</g>
<defs>
<clipPath id="clip0_35_75">
<rect width="42.3653" height="42.3653" fill="white" transform="translate(0.436523 0.962891)"/>
</clipPath>
</defs>
</svg>
